<svg data-v-423bf9ae="" xmlns="http://www.w3.org/2000/svg" viewBox="0 0 598 99" class="iconLeft"><!----><!----><!----><g data-v-423bf9ae="" id="5f206487-d96e-4227-bf39-377547eeafbf" fill="#193655" transform="matrix(4.792332823234312,0,0,4.792332823234312,114.63033681329296,-1.3183425285566273)"><path d="M0.98 14.08L3.47 14.08L3.47 10.47L7.87 10.47L7.87 8.51L3.47 8.51L3.47 6.24L8.25 6.24L8.25 4.28L0.98 4.28ZM8.83 11.83C8.83 13.22 9.81 14.20 11.42 14.20C12.45 14.20 13.24 13.86 13.73 13.22L13.73 14.08L16.10 14.08L16.10 9.16C16.09 7.45 14.88 6.43 12.81 6.43C11.55 6.43 10.49 6.73 9.31 7.28L10.00 8.88C10.79 8.47 11.62 8.25 12.25 8.25C13.23 8.25 13.72 8.69 13.72 9.44L13.72 9.55L11.73 9.55C9.86 9.56 8.83 10.40 8.83 11.83ZM11.10 11.66C11.10 11.10 11.47 10.85 12.19 10.85L13.72 10.85L13.72 11.52C13.57 12.14 12.92 12.56 12.17 12.56C11.49 12.56 11.10 12.21 11.10 11.66ZM17.08 13.12C17.99 13.82 19.21 14.18 20.47 14.18C22.29 14.18 23.65 13.33 23.65 11.77C23.66 9.14 19.68 9.65 19.68 8.61C19.68 8.26 19.99 8.09 20.43 8.09C21.06 8.09 21.90 8.36 22.81 8.85L23.63 7.28C22.71 6.73 21.62 6.43 20.52 6.43C18.77 6.43 17.46 7.27 17.46 8.82C17.44 11.47 21.35 10.89 21.35 12.00C21.35 12.35 21 12.52 20.52 12.52C19.68 12.52 18.70 12.18 17.85 11.58ZM24.30 8.47L25.35 8.47L25.35 11.80C25.35 13.37 26.40 14.20 27.86 14.20C28.59 14.20 29.33 14 29.88 13.68L29.40 12.00C29.04 12.15 28.71 12.25 28.46 12.25C28.01 12.26 27.76 12.01 27.76 11.42L27.76 8.47L29.74 8.47L29.74 6.87L27.76 6.87L27.76 4.79L25.35 4.79L25.35 6.89L24.30 6.89ZM34.36 14.08L36.69 14.08L36.69 8.05L41.20 14.08L43.40 14.08L43.40 4.28L41.08 4.28L41.08 10.33L36.55 4.28L34.36 4.28ZM44.72 10.30C44.72 12.63 46.37 14.17 48.85 14.17C51.31 14.17 52.96 12.63 52.96 10.30C52.96 7.98 51.31 6.45 48.85 6.45C46.37 6.45 44.72 7.98 44.72 10.30ZM47.15 10.33C47.15 9.17 47.84 8.37 48.85 8.37C49.84 8.37 50.53 9.17 50.53 10.33C50.53 11.51 49.84 12.29 48.85 12.29C47.84 12.29 47.15 11.51 47.15 10.33ZM53.56 8.47L54.61 8.47L54.61 11.80C54.61 13.37 55.66 14.20 57.12 14.20C57.85 14.20 58.59 14 59.14 13.68L58.66 12.00C58.30 12.15 57.97 12.25 57.72 12.25C57.27 12.26 57.02 12.01 57.02 11.42L57.02 8.47L59.00 8.47L59.00 6.87L57.02 6.87L57.02 4.79L54.61 4.79L54.61 6.89L53.56 6.89ZM59.72 10.33C59.72 12.63 61.26 14.17 63.73 14.17C65.11 14.17 66.25 13.68 67.02 12.84L65.74 11.59C65.24 12.10 64.60 12.36 63.94 12.36C63.04 12.36 62.40 11.86 62.16 10.96L67.47 10.96C67.63 8.20 66.32 6.45 63.66 6.45C61.32 6.45 59.72 7.99 59.72 10.33ZM62.12 9.66C62.27 8.75 62.85 8.13 63.69 8.13C64.55 8.13 65.14 8.74 65.14 9.66ZM70.99 14.08L73.56 14.08L74.27 12.28L78.55 12.28L79.25 14.08L81.91 14.08L77.78 4.28L75.22 4.28ZM75.00 10.39L76.43 6.76L77.83 10.39ZM82.88 16.80L85.30 16.80L85.30 13.08C85.83 13.78 86.63 14.17 87.61 14.17C89.73 14.17 91.10 12.64 91.10 10.35C91.10 8.01 89.68 6.45 87.56 6.45C86.60 6.45 85.83 6.85 85.30 7.53L85.30 6.54L82.88 6.54ZM85.30 10.28C85.30 9.13 85.99 8.32 86.97 8.32C87.98 8.32 88.66 9.13 88.66 10.28C88.66 11.44 87.98 12.25 86.97 12.25C85.99 12.25 85.30 11.45 85.30 10.28ZM92.47 16.80L94.89 16.80L94.89 13.08C95.42 13.78 96.22 14.17 97.20 14.17C99.32 14.17 100.69 12.64 100.69 10.35C100.69 8.01 99.27 6.45 97.15 6.45C96.19 6.45 95.42 6.85 94.89 7.53L94.89 6.54L92.47 6.54ZM94.89 10.28C94.89 9.13 95.58 8.32 96.56 8.32C97.57 8.32 98.25 9.13 98.25 10.28C98.25 11.44 97.57 12.25 96.56 12.25C95.58 12.25 94.89 11.45 94.89 10.28Z"></path></g><defs data-v-423bf9ae=""><linearGradient data-v-423bf9ae="" gradientTransform="rotate(25)" id="c7fdf90e-c648-4e1a-ad37-5d62a5f162f8" x1="0%" y1="0%" x2="100%" y2="0%"><stop data-v-423bf9ae="" offset="0%" style="stop-color: rgb(81, 164, 251); stop-opacity: 1;"></stop><stop data-v-423bf9ae="" offset="100%" style="stop-color: rgb(81, 164, 251); stop-opacity: 1;"></stop></linearGradient></defs><g data-v-423bf9ae="" id="3dec088a-a671-49c2-aeb7-54eca9ff1542" transform="matrix(1.0455497741699218,0,0,1.0455497741699218,-1.774137253285879,-2.2947397063016908)" stroke="none" fill="url(#c7fdf90e-c648-4e1a-ad37-5d62a5f162f8)"><path d="M97.361 2.237H11.857v55.636l10.131-2.926-.081-42.621h65.33v41.805c0 23.011-11.977 28.367-17.259-1.67L22.01 66.511v-.024l-10.028 2.941v.022l-8.531 2.495C.023 85.088 5.561 97.6 15.156 96.234c0 0 66.596-11.189 71.301-13.007 4.704-1.82 10.197-11.168 10.904-23.792.156-2.771 0-57.198 0-57.198z"></path></g><!----></svg>